HIERARCHY
ROOT hip
{
	OFFSET 0.000000 0.000000 0.000000 
	CHANNELS 6 Xposition Yposition Zposition Xrotation Zrotation Yrotation
	JOINT abdomen
	{
		OFFSET 0.000000 3.402643 0.000000 
		CHANNELS 3 Xrotation Zrotation Yrotation
		JOINT chest
		{
			OFFSET 0.000000 8.438565 -0.680529 
			CHANNELS 3 Xrotation Zrotation Yrotation
			JOINT neck
			{
				OFFSET 0.000000 10.207942 -0.272212 
				CHANNELS 3 Xrotation Zrotation Yrotation
				JOINT head
				{
					OFFSET 0.000000 3.130431 0.000000 
					CHANNELS 3 Xrotation Zrotation Yrotation
					End Site
					{
						OFFSET 0.000000 3.130435 0.000000 
					}
				}
			}
			JOINT lCollar
			{
				OFFSET 3.470700 6.669187 -0.816635 
				CHANNELS 3 Yrotation Zrotation Xrotation
				JOINT lShldr
				{
					OFFSET 3.198488 0.000000 0.000000 
					CHANNELS 3 Zrotation Yrotation Xrotation
					JOINT lForeArm
					{
						OFFSET 10.139888 0.000000 0.000000 
						CHANNELS 3 Yrotation Zrotation Xrotation
						JOINT lHand
						{
							OFFSET 8.370511 0.000000 0.000000 
							CHANNELS 3 Zrotation Yrotation Xrotation
							End Site
							{
								OFFSET 4.083176 0.000000 0.000000 
							}
						}
					}
				}
			}
			JOINT rCollar
			{
				OFFSET -3.470700 6.669187 -0.816635 
				CHANNELS 3 Yrotation Zrotation Xrotation
				JOINT rShldr
				{
					OFFSET -3.198488 0.000000 0.000000 
					CHANNELS 3 Zrotation Yrotation Xrotation
					JOINT rForeArm
					{
						OFFSET -10.139888 0.000000 0.000000 
						CHANNELS 3 Yrotation Zrotation Xrotation
						JOINT rHand
						{
							OFFSET -8.370511 0.000000 0.000000 
							CHANNELS 3 Zrotation Yrotation Xrotation
							End Site
							{
								OFFSET -4.083176 0.000000 0.000000 
							}
						}
					}
				}
			}
		}
	}
	JOINT lThigh
	{
		OFFSET 5.308129 -1.633274 1.361059 
		CHANNELS 3 Xrotation Zrotation Yrotation
		JOINT lShin
		{
			OFFSET -2.041588 -20.007561 0.000000 
			CHANNELS 3 Xrotation Zrotation Yrotation
			JOINT lFoot
			{
				OFFSET 0.000000 -19.190928 -1.224953 
				CHANNELS 3 Xrotation Yrotation Zrotation
				End Site
				{
					OFFSET 0.000000 -2.449906 4.627600 
				}
			}
		}
	}
	JOINT rThigh
	{
		OFFSET -5.308129 -1.633274 1.361059 
		CHANNELS 3 Xrotation Zrotation Yrotation
		JOINT rShin
		{
			OFFSET 2.041588 -20.007561 0.000000 
			CHANNELS 3 Xrotation Zrotation Yrotation
			JOINT rFoot
			{
				OFFSET 0.000000 -19.190928 -1.224953 
				CHANNELS 3 Xrotation Yrotation Zrotation
				End Site
				{
					OFFSET 0.000000 -2.449906 4.627600 
				}
			}
		}
	}
}
MOTION
Frames: 16
Frame Time: 0.033333
-38.608192 48.060352 -58.461807 1.181668 -0.390542 49.923515 0.000000 0.000000 0.000000 6.320309 5.688103 5.756681 -8.603516 0.000000 0.000000 17.918745 -5.146446 27.301455 -2.957607 -0.090307 -0.002318 -75.033615 5.029924 -2.809943 -79.135826 -45.890675 -13.673189 56.718739 -23.312708 -4.816331 2.957607 0.090307 -0.002334 75.285782 12.361656 0.544644 69.954880 29.056427 -3.018559 -49.132858 26.193560 13.669139 -9.686269 17.554485 12.558531 7.598827 0.573970 0.216718 4.613419 -5.897167 -20.510395 6.122927 -16.875134 -27.585892 9.937136 0.823560 2.142570 -9.551037 -0.581123 13.606011 
-38.598221 48.059334 -58.452858 1.181668 -0.390542 49.943054 0.000000 0.000000 0.000000 6.300682 5.688317 5.784042 -8.603516 0.000000 0.000000 17.948442 -5.165286 27.315201 -2.957607 -0.090307 -0.002318 -75.023819 5.040259 -2.780543 -79.118973 -45.907593 -13.651875 56.748695 -23.319986 -4.839334 2.957607 0.090307 -0.002334 75.276085 12.370985 0.515488 69.970238 29.066389 -3.037194 -49.157860 26.152187 13.663760 -9.696268 17.574617 12.527901 7.618400 0.573950 0.216067 4.602392 -5.903562 -20.533962 6.155747 -16.868973 -27.579468 9.898965 0.815255 2.130529 -9.473357 -0.622365 13.594109 
-38.591648 48.061939 -58.446850 1.181668 -0.390542 49.952816 0.000000 0.000000 0.000000 6.290975 5.698131 5.784141 -8.603516 0.000000 0.000000 17.978144 -5.184122 27.328926 -2.957607 -0.090307 -0.002318 -75.023331 5.030506 -2.780520 -79.083199 -45.921448 -13.629996 56.768021 -23.318356 -4.848835 2.957607 0.090307 -0.002334 75.266037 12.380273 0.505860 69.973572 29.080254 -3.037930 -49.164474 26.122194 13.644254 -9.676580 17.574350 12.529650 7.618257 0.565483 0.196132 4.591545 -5.905718 -20.536089 6.210162 -16.864971 -27.583141 9.879372 0.815447 2.129660 -9.425234 -0.664507 13.593779 
-38.586891 48.061031 -58.445381 1.181667 -0.380778 49.962788 0.000000 0.000000 0.000000 6.271454 5.708051 5.802795 -8.603516 0.000000 0.000000 17.988237 -5.203246 27.363935 -2.957607 -0.090307 -0.002318 -75.033585 5.039773 -2.780673 -79.079185 -45.930420 -13.612849 56.787342 -23.316727 -4.848574 2.957607 0.090307 -0.002334 75.255112 12.399272 0.515774 69.978813 29.083765 -3.045809 -49.181828 26.101095 13.634545 -9.656225 17.562187 12.541186 7.608089 0.565450 0.186708 4.579546 -5.892835 -20.523584 6.235434 -16.860210 -27.575741 9.860144 0.815445 2.119034 -9.389484 -0.678249 13.586008 
-38.572617 48.061031 -58.434044 1.181665 -0.371015 49.992287 0.000000 0.000000 0.000000 6.232306 5.718185 5.809732 -8.603516 0.000000 0.000000 18.028042 -5.241195 27.411720 -2.957607 -0.090307 -0.002318 -75.014511 5.060348 -2.751164 -79.120422 -45.927048 -13.628399 56.826965 -23.323193 -4.838283 2.957607 0.090307 -0.002334 75.234642 12.417801 0.516047 69.999084 29.096664 -3.067326 -49.197128 26.060549 13.619362 -9.646155 17.571016 12.512346 7.617490 0.565428 0.176633 4.561779 -5.890646 -20.544830 6.297603 -16.855101 -27.570490 9.821689 0.815429 2.097780 -9.380575 -0.691469 13.600801 
-38.558453 48.058197 -58.428383 1.181665 -0.371015 50.011822 0.000000 0.000000 0.000000 6.222704 5.737707 5.830400 -8.603516 0.000000 0.000000 18.018824 -5.279879 27.474606 -2.957607 -0.090307 -0.002318 -75.023300 5.040355 -2.751251 -79.103539 -45.943958 -13.614099 56.855953 -23.320751 -4.837884 2.957607 0.090307 -0.002334 75.212646 12.465591 0.514256 70.004982 29.136446 -3.081383 -49.221107 26.009457 13.599916 -9.647109 17.583778 12.492809 7.637384 0.555685 0.165727 4.532416 -5.875605 -20.553455 6.361640 -16.859148 -27.587852 9.792726 0.805643 2.105572 -9.348348 -0.733372 13.622898 
-38.541344 48.052536 -58.419769 1.181664 -0.361251 50.031548 0.000000 0.000000 0.000000 6.193368 5.747735 5.877348 -8.603516 0.000000 0.000000 18.038883 -5.308481 27.516851 -2.957607 -0.090307 -0.002318 -74.993164 5.032125 -2.731309 -79.115639 -45.965935 -13.613892 56.894596 -23.317493 -4.837353 2.957607 0.090307 -0.002334 75.200523 12.504071 0.533959 70.013618 29.153822 -3.089993 -49.254795 25.957531 13.584775 -9.607790 17.562805 12.476899 7.648718 0.544705 0.184326 4.502882 -5.876031 -20.546694 6.432391 -16.871813 -27.586052 9.763707 0.805626 2.094506 -9.299905 -0.774769 13.622938 
-38.521400 48.055367 -58.416943 1.191430 -0.361250 50.031487 0.000000 0.000000 0.000000 6.203289 5.757336 5.879377 -8.603516 0.000000 0.000000 18.019716 -5.337683 27.611542 -2.957607 -0.090307 -0.002318 -74.963264 5.004167 -2.779669 -79.095909 -45.992802 -13.601934 56.934208 -23.323961 -4.846588 2.957607 0.090307 -0.002334 75.194321 12.591654 0.619831 70.007919 29.162937 -3.104444 -49.260399 25.917814 13.565273 -9.579852 17.577068 12.489676 7.628686 0.534931 0.155232 4.485184 -5.835889 -20.556345 6.471976 -16.873167 -27.570162 9.734693 0.805612 2.083440 -9.247920 -0.798730 13.609810 
-38.507240 48.052536 -58.411270 1.191429 -0.351487 50.051228 0.000000 0.000000 0.000000 6.193687 5.776860 5.851200 -8.603516 0.000000 0.000000 17.990744 -5.367038 27.736454 -2.957607 -0.090307 -0.002318 -74.934219 4.985897 -2.847578 -79.092491 -46.002266 -13.601549 56.953537 -23.322332 -4.836554 2.957607 0.090307 -0.002334 75.207008 12.680152 0.736872 69.993561 29.154676 -3.115041 -49.277760 25.896715 13.555570 -9.568805 17.573116 12.480362 7.637022 0.544583 0.135908 4.450160 -5.837749 -20.581984 6.518990 -16.870626 -27.584557 9.715113 0.805599 2.082557 -9.266401 -0.808936 13.638049 
-38.490131 48.055367 -58.402775 1.191430 -0.361250 50.080315 0.000000 0.000000 0.000000 6.193794 5.786569 5.832718 -8.603516 0.000000 0.000000 17.961918 -5.406034 27.869587 -2.957607 -0.090307 -0.002318 -74.895226 4.968144 -2.905591 -79.120934 -46.006832 -13.605893 56.953537 -23.322332 -4.817022 2.957607 0.090307 -0.002334 75.200256 12.767676 0.852005 69.984123 29.149349 -3.123772 -49.304829 25.874788 13.530622 -9.540339 17.566259 12.483439 7.616427 0.526279 0.077041 4.443834 -5.810736 -20.573162 6.557285 -16.880152 -27.599619 9.694774 0.815311 2.082292 -9.330070 -0.815917 13.647943 
-38.470192 48.058197 -58.394279 1.201198 -0.380776 50.109135 0.000000 0.000000 0.000000 6.203930 5.815588 5.807559 -8.603516 0.000000 0.000000 17.913479 -5.445338 27.985077 -2.957607 -0.090307 -0.002318 -74.854759 4.921130 -2.963532 -79.141075 -46.010857 -13.639994 56.962219 -23.311796 -4.803257 2.957607 0.090307 -0.002334 75.203384 12.855714 0.957230 69.958092 29.145548 -3.116712 -49.322189 25.853685 13.491620 -9.539678 17.593390 12.443490 7.617735 0.506855 0.076131 4.414647 -5.804587 -20.584919 6.585386 -16.849688 -27.637980 9.675650 0.795963 2.109420 -9.342670 -0.859123 13.660390 
-38.453197 48.063866 -58.385670 1.201201 -0.400303 50.138023 0.000000 0.000000 0.000000 6.184729 5.854636 5.790240 -8.603516 0.000000 0.000000 17.884655 -5.484344 28.108534 -2.957607 -0.090307 -0.002318 -74.815285 4.893621 -3.021518 -79.137665 -46.020321 -13.632584 56.969944 -23.291531 -4.803123 2.957607 0.090307 -0.002334 75.196800 12.943268 1.064744 69.935417 29.155602 -3.110384 -49.348228 25.822035 13.452648 -9.530074 17.623209 12.424349 7.607830 0.497069 0.056464 4.388065 -5.776265 -20.599287 6.629378 -16.825647 -27.657803 9.637995 0.785570 2.087496 -9.303933 -0.881477 13.680662 
-38.436089 48.075195 -58.377171 1.210970 -0.419828 50.176601 0.000000 0.000000 0.000000 6.165312 5.874271 5.741508 -8.603516 0.000000 0.000000 17.865644 -5.523202 28.231094 -2.957607 -0.090307 -0.002318 -74.776291 4.875865 -3.079525 -79.156639 -46.023350 -13.640162 56.957363 -23.263168 -4.793490 2.957607 0.090307 -0.002334 75.201645 13.002074 1.160140 69.917015 29.132301 -3.100778 -49.354866 25.792042 13.417868 -9.519579 17.620991 12.395535 7.588134 0.487309 0.037132 4.364279 -5.768954 -20.610477 6.657896 -16.795626 -27.686249 9.608616 0.785745 2.086192 -9.322587 -0.904671 13.681144 
-38.427586 48.080975 -58.365726 1.210973 -0.439355 50.225010 0.000000 0.000000 0.000000 6.185270 5.903181 5.678291 -8.603516 0.000000 0.000000 17.817202 -5.562525 28.346754 -2.957607 -0.090307 -0.002318 -74.756020 4.837594 -3.147512 -79.137665 -46.020321 -13.632584 56.955425 -23.243721 -4.803253 2.957607 0.090307 -0.002334 75.186378 13.079452 1.238468 69.892410 29.152695 -3.077800 -49.389595 25.749840 13.378925 -9.509854 17.640699 12.366670 7.578211 0.477528 0.017470 4.345700 -5.757385 -20.629490 6.702473 -16.761755 -27.716303 9.559674 0.785685 2.083995 -9.330398 -0.927751 13.681448 
-38.416145 48.080975 -58.348732 1.220742 -0.458880 50.292877 0.000000 0.000000 0.000000 6.166071 5.942234 5.660928 -8.603516 0.000000 0.000000 17.798037 -5.591753 28.402584 -2.957607 -0.090307 -0.002318 -74.754059 4.798581 -3.146597 -79.118103 -46.016796 -13.615256 56.952515 -23.214548 -4.799401 2.957607 0.090307 -0.002334 75.155312 13.107208 1.256183 69.864082 29.158627 -3.053867 -49.435051 25.716536 13.340020 -9.508795 17.656820 12.326743 7.568272 0.467776 -0.002269 4.338202 -5.765610 -20.642487 6.736863 -16.717461 -27.762011 9.522355 0.766171 2.071420 -9.339318 -0.963167 13.697292 
-38.404701 48.083809 -58.334461 1.230515 -0.497932 50.350548 0.000000 0.000000 0.000000 6.146763 5.971581 5.642498 -8.603516 0.000000 0.000000 17.788837 -5.630467 28.416853 -2.957607 -0.090307 -0.002318 -74.761688 4.759114 -3.136874 -79.122108 -46.007824 -13.632409 56.957325 -23.165108 -4.799263 2.957607 0.090307 -0.002334 75.104469 13.143765 1.266603 69.839439 29.178999 -3.030888 -49.478462 25.663780 13.305354 -9.558970 17.670300 12.253645 7.569695 0.456971 0.016759 4.314253 -5.758816 -20.653486 6.763809 -16.676220 -27.808796 9.484286 0.756403 2.059326 -9.349633 -0.968160 13.706106 
